<svg width="73" height="72" viewBox="0 0 73 72" fill="none" xmlns="http://www.w3.org/2000/svg">
<path d="M36.5 7.20001C20.3743 7.20001 7.30005 20.0952 7.30005 36C7.30005 49.4952 16.7219 60.7872 29.4239 63.912C29.2876 63.5232 29.2001 63.072 29.2001 62.5128V57.5904C28.015 57.5904 26.0294 57.5904 25.5306 57.5904C23.5328 57.5904 21.7565 56.7432 20.8951 55.1688C19.9388 53.4192 19.7733 50.7432 17.4032 49.1064C16.7 48.5616 17.2353 47.94 18.0456 48.024C19.5421 48.4416 20.7831 49.4544 21.9511 50.9568C23.1143 52.4616 23.6618 52.8024 25.8347 52.8024C26.8884 52.8024 28.4652 52.7424 29.9495 52.512C30.7476 50.5128 32.1273 48.672 33.8137 47.8032C24.09 46.8168 19.4497 42.0456 19.4497 35.568C19.4497 32.7792 20.6542 30.0816 22.7006 27.8088C22.029 25.5528 21.1847 20.952 22.9586 19.2C27.3337 19.2 29.9787 21.9984 30.6138 22.7544C32.7941 22.0176 35.1885 21.6 37.7045 21.6C40.2255 21.6 42.6296 22.0176 44.8148 22.7592C45.4426 22.008 48.09 19.2 52.4749 19.2C54.2561 20.9544 53.402 25.5744 52.7231 27.8256C54.7574 30.0936 55.9546 32.784 55.9546 35.568C55.9546 42.0408 51.3215 46.8096 41.6125 47.8008C44.2843 49.176 46.2334 53.04 46.2334 55.9512V62.5128C46.2334 62.7624 46.1774 62.9424 46.1482 63.156C57.5265 59.2224 65.7001 48.5664 65.7001 36C65.7001 20.0952 52.6258 7.20001 36.5 7.20001Z" fill="#EB993A"/>
</svg>
