<svg width="72" height="72" viewBox="0 0 72 72" fill="none" xmlns="http://www.w3.org/2000/svg">
<path d="M36 7.20001C20.0952 7.20001 7.19995 20.0952 7.19995 36C7.19995 51.9048 20.0952 64.8 36 64.8C51.9048 64.8 64.8 51.9048 64.8 36C64.8 20.0952 51.9048 7.20001 36 7.20001ZM25.1904 20.1672C27.2112 20.1672 28.5576 21.5136 28.5576 23.3088C28.5576 25.104 27.2112 26.4504 24.9672 26.4504C22.9464 26.4528 21.6 25.104 21.6 23.3088C21.6 21.5136 22.9464 20.1672 25.1904 20.1672ZM28.8 48H21.6V28.8H28.8V48ZM52.8 48H46.0224V37.5072C46.0224 34.6056 44.2152 33.936 43.5384 33.936C42.8616 33.936 40.6008 34.3824 40.6008 37.5072C40.6008 37.9536 40.6008 48 40.6008 48H33.6V28.8H40.6031V31.4784C41.5056 29.916 43.3128 28.8 46.7016 28.8C50.0904 28.8 52.8 31.4784 52.8 37.5072V48Z" fill="#EB993A"/>
</svg>
