<?xml version="1.0" encoding="UTF-8"?>
<svg id="Layer_2" data-name="Layer 2" xmlns="http://www.w3.org/2000/svg" viewBox="0 0 249.8 150.38">
  <defs>
    <style>
      .cls-1 {
        fill: #231f20;
      }
    </style>
  </defs>
  <g id="Layer_3" data-name="Layer 3">
    <g>
      <path class="cls-1" d="M61.36,10.19c0-5.62,4.78-10.19,10.4-10.19h23.92c5.62,0,10.19,4.58,10.19,10.19V82.16c0,37.65-30.78,68.22-68.43,68.22H10.19c-5.62,0-10.19-4.58-10.19-10.19v-27.25c0-5.62,4.58-10.19,10.19-10.19,1.87,0,3.74,.42,5.2,1.25l35.98,21.63c1.04,.62,1.87,.83,3.12,.83,3.74,0,6.86-3.12,6.86-6.86V10.19Z"/>
      <path class="cls-1" d="M239.61,150.38h-92.35c-5.62,0-10.19-4.58-10.19-10.19V10.19c0-5.62,4.58-10.19,10.19-10.19h23.92c5.62,0,10.4,4.58,10.4,10.19V123.13c0,3.74,3.12,6.66,6.86,6.66,1.25,0,2.08-.21,3.12-.83l42.85-24.96c1.46-.83,3.33-1.25,5.2-1.25,5.62,0,10.19,4.58,10.19,10.19v27.25c0,5.62-4.58,10.19-10.19,10.19Z"/>
    </g>
  </g>
</svg>