<svg width="75" height="75" viewBox="0 0 75 75" fill="none" xmlns="http://www.w3.org/2000/svg">
<circle cx="37.5" cy="37.5" r="37.5" fill="#EB993A"/>
<path d="M56.5559 22.3723H19.3154C17.4873 22.3723 16 23.9459 16 25.8802V47.9796C16 49.9138 17.4873 51.4875 19.3154 51.4875L56.5559 51.4878C58.384 51.4878 59.8713 49.9142 59.8713 47.98V25.8805C59.8713 23.9463 58.384 22.3727 56.5559 22.3727V22.3723ZM55.3556 24.5826L40.2257 35.1856C38.8344 36.158 37.0366 36.1577 35.647 35.1863L20.5154 24.5824L55.3556 24.5826ZM57.7822 47.9795C57.7822 48.6949 57.2324 49.2771 56.5562 49.2771H19.3149C18.6387 49.2771 18.0888 48.6949 18.0888 47.9795L18.0885 25.8801C18.0885 25.7696 18.1017 25.6623 18.1262 25.56L34.4939 37.0303C35.5393 37.7607 36.7369 38.1261 37.9352 38.1261C39.1335 38.1261 40.3318 37.7608 41.3782 37.0297L57.7442 25.5603C57.769 25.6629 57.7819 25.7699 57.7819 25.8803L57.7822 47.9795Z" fill="#4C4135"/>
</svg>
